<svg width="96" height="96" viewBox="0 0 96 96" fill="none" xmlns="http://www.w3.org/2000/svg">
<path d="M55.3561 0.342791C58.8143 -0.586759 62.5036 0.404713 65.0358 2.94631L92.7047 30.7217C95.2365 33.2632 96.2234 36.9656 95.2975 40.4365L85.1696 78.3789C84.2434 81.8469 81.5418 84.5578 78.0836 85.4873L40.2838 95.6572C36.8256 96.5868 33.1363 95.5922 30.6041 93.0537L2.93225 65.2783C0.403358 62.7369 -0.584428 59.0345 0.341431 55.5635L10.4733 17.6182C11.3993 14.1503 14.1003 11.4384 17.5553 10.5088L55.3561 0.342791ZM85.4615 43.7725C85.9846 41.8115 85.5658 41.2433 83.3844 41.8301L67.6813 46.0547C65.4876 46.6971 63.5612 47.6823 61.7614 49.5723L56.8424 54.5938C55.0857 56.3138 54.0023 57.8544 53.4762 59.8184L48.2369 79.4502C47.7416 81.3 48.2061 82.4771 49.1168 83.5332L51.9782 86.4112C53.0427 87.4764 54.4274 87.7298 56.7194 87.1153L72.4225 82.8906C74.6038 82.3039 75.4134 81.4114 75.9518 79.3887L76.8961 75.8555C77.496 73.6137 77.1114 73.3018 74.7643 73.9317L61.0699 77.6123C60.1194 77.8686 59.8574 77.8876 59.5836 77.5449L58.3004 76.3252C58.0543 76.0813 57.854 75.6641 58.0631 74.8799V74.8858L62.1989 59.4014C62.3036 59.0122 62.6512 58.2928 62.9342 58.0088L65.5426 55.4307C65.841 55.088 66.4595 54.7135 66.8502 54.6084L80.9323 50.8194C82.9475 50.2789 83.9478 49.4356 84.5016 47.3604L85.4615 43.7725ZM26.7916 32.2256C25.6902 31.1201 25.2474 31.0305 24.6598 31.8643L5.71643 59.2969C4.78741 60.6402 4.74478 62.1599 6.13538 63.5557L9.05139 66.5567C10.2359 67.7456 10.713 67.5143 11.3561 66.6651L13.9625 62.7373L22.7985 71.6065L22.6627 77.9375C22.6475 79.5555 23.4412 80.9207 24.8317 82.3164L28.5553 86.0528C30.355 87.8622 30.4965 86.9392 30.5612 84.3701L31.1666 38.1826C31.1943 36.9259 31.0471 36.4965 29.8629 35.3047L26.7916 32.2256ZM23.0416 61.1807L18.2975 56.418V56.4151L23.2877 48.9824L23.0416 61.1807ZM50.3258 6.98537C47.7692 6.26895 46.3537 6.12685 44.0065 6.75978L27.2965 11.2529C25.229 11.8088 24.9674 12.4024 26.5211 13.9619V13.959L52.4147 39.9551C54.1345 41.6783 55.396 41.8082 57.9127 41.1319L75.2897 36.4561C77.8064 35.7798 78.1386 35.1186 78.5817 33.6455L79.3541 30.9375C79.7541 29.6312 79.7819 28.9458 78.3512 27.5098L72.9518 22.0899C71.7242 20.8577 70.6562 20.5734 68.278 19.9619L65.8043 19.3262L65.8199 19.2705C66.1307 18.3008 66.0202 16.9787 64.7096 15.6631L59.7184 10.6543C58.2879 9.2185 57.1006 8.80735 54.778 8.18361L50.3258 6.98537ZM61.5709 25.3106C61.9061 25.218 62.2969 25.113 62.6813 25.2178L64.4235 25.6875C64.8077 25.7894 65.1089 26.021 65.2321 26.1445L65.235 26.1475L67.527 28.4483C67.6069 28.5285 67.8536 28.7757 67.7955 29.001L67.5797 29.9961C67.5212 30.2212 67.3516 30.2648 67.0748 30.3389L57.1285 33.0127L52.0143 27.8799L61.5709 25.3106ZM49.5563 13.7549L51.4362 14.2891C51.8269 14.3941 52.1099 14.6785 52.153 14.7217L52.1559 14.7276L54.4449 17.0254C54.648 17.2292 54.728 17.3127 54.6696 17.5381L54.4264 18.6436C54.3678 18.8657 54.0178 19.0138 53.7379 19.0879L45.4674 21.3115L40.2711 16.0957L48.5407 13.8721C48.6514 13.8412 49.267 13.6778 49.5563 13.7549Z" fill="white"/>
</svg>
