<svg width="96" height="96" viewBox="0 0 96 96" fill="none" xmlns="http://www.w3.org/2000/svg">
<path d="M55.3562 0.342791C58.8144 -0.586759 62.5037 0.404713 65.0359 2.94631L92.7048 30.7217C95.2367 33.2632 96.2244 36.9656 95.2986 40.4365L85.1696 78.3789C84.2435 81.8468 81.5418 84.5578 78.0837 85.4873L40.2839 95.6572C36.8257 96.5868 33.1363 95.5922 30.6042 93.0537L2.93234 65.2783C0.403425 62.7367 -0.584545 59.0336 0.341521 55.5625L10.4734 17.6182C11.3994 14.1501 14.1012 11.4384 17.5564 10.5088L55.3562 0.342791ZM85.4616 43.7725C85.9847 41.8115 85.5667 41.2434 83.3855 41.8301L67.6814 46.0547C65.4878 46.6971 63.5622 47.6824 61.7624 49.5723L56.8425 54.5938C55.0858 56.3138 54.0024 57.8544 53.4763 59.8184L48.237 79.4502C47.7417 81.3 48.2062 82.4771 49.1169 83.5332L51.9782 86.4112C53.0428 87.4765 54.4274 87.7298 56.7195 87.1153L72.4226 82.8906C74.6039 82.3039 75.4134 81.4113 75.9519 79.3887L76.8962 75.8555C77.4961 73.6135 77.1118 73.3017 74.7644 73.9317L61.07 77.6123C60.1194 77.8686 59.8575 77.8877 59.5837 77.5449L58.3005 76.3252C58.0544 76.0813 57.855 75.6642 58.0642 74.8799V74.8858L62.1989 59.4014C62.3036 59.0122 62.6513 58.2929 62.9343 58.0088L65.5437 55.4297C65.8423 55.087 66.4607 54.7134 66.8513 54.6084L80.9333 50.8194C82.9484 50.2789 83.9479 49.4355 84.5017 47.3604L85.4616 43.7725ZM26.7927 32.2256C25.6912 31.12 25.2475 31.0305 24.6599 31.8643L5.71652 59.2969C4.78759 60.6402 4.74492 62.1599 6.13547 63.5557L9.05246 66.5567C10.2369 67.7455 10.7132 67.5142 11.3562 66.6651L13.9626 62.7373L22.7986 71.6065L22.6638 77.9375C22.6486 79.5555 23.4422 80.9207 24.8327 82.3164L28.5554 86.0528C30.3552 87.8623 30.4966 86.9392 30.5612 84.3701L31.1677 38.1826C31.1954 36.9258 31.0473 36.4966 29.863 35.3047L26.7927 32.2256ZM23.0417 61.1807L18.2976 56.418V56.4151L23.2878 48.9824L23.0417 61.1807ZM50.3259 6.98537C47.7693 6.26894 46.3539 6.12678 44.0066 6.75978L27.2966 11.2529C25.2291 11.8088 24.9675 12.4024 26.5212 13.9619V13.959L52.4148 39.9551C54.1346 41.6782 55.3963 41.8081 57.9128 41.1319L75.2907 36.4561C77.8071 35.7798 78.1397 35.1185 78.5827 33.6455L79.3542 30.9375C79.7542 29.6312 79.782 28.9458 78.3513 27.5098L72.9519 22.0899C71.7243 20.8577 70.6563 20.5734 68.278 19.9619L65.8044 19.3262L65.82 19.2705C66.1308 18.3008 66.0204 16.9787 64.7097 15.6631L59.7195 10.6543C58.2888 9.21832 57.1009 8.80742 54.778 8.18361L50.3259 6.98537ZM61.571 25.3106C61.9064 25.2179 62.2978 25.1128 62.6823 25.2178L64.4236 25.6875C64.8078 25.7894 65.1089 26.021 65.2321 26.1445L65.2361 26.1475L67.528 28.4483C67.608 28.5285 67.8538 28.7756 67.7956 29.001L67.5798 29.9961C67.5213 30.2211 67.3525 30.2649 67.0759 30.3389L57.1286 33.0127L52.0153 27.8799L61.571 25.3106ZM49.5564 13.7549L51.4362 14.2891C51.8267 14.394 52.1097 14.6782 52.153 14.7217L52.157 14.7276L54.446 17.0254C54.6489 17.229 54.7291 17.3128 54.6706 17.5381L54.4275 18.6436C54.369 18.8659 54.018 19.0138 53.738 19.0879L45.4675 21.3115L40.2712 16.0957L48.5417 13.8721C48.6531 13.841 49.2672 13.678 49.5564 13.7549Z" fill="black"/>
</svg>
