<svg width="96" height="96" viewBox="0 0 96 96" fill="none" xmlns="http://www.w3.org/2000/svg">
<path d="M10.4701 17.6213L0.341586 55.563C-0.584503 59.0342 0.40312 62.7369 2.93217 65.2785L30.6041 93.0539C33.1362 95.5924 36.8252 96.5868 40.2834 95.6572L78.0838 85.4878C81.542 84.5582 84.2434 81.8468 85.1695 78.3787L95.298 40.437C96.2241 36.9659 95.2364 33.2631 92.7043 30.7215L65.0355 2.94617C62.5034 0.40458 58.8144 -0.586735 55.3562 0.342815L17.5558 10.5092C14.1006 11.4387 11.3993 14.1502 10.4732 17.6182" fill="white"/>
<path d="M65.2322 26.1448C65.1091 26.0212 64.8076 25.7896 64.423 25.6877L62.6816 25.2183C62.297 25.1133 61.9063 25.2183 61.5709 25.311L52.0147 27.8803L57.1282 33.0129L67.0752 30.3386C67.3521 30.2644 67.5213 30.2212 67.5797 29.9958L67.7951 29.0014C67.8536 28.7759 67.6074 28.5289 67.5274 28.4486L65.2353 26.1479L65.2322 26.1448ZM52.1531 14.7215C52.1101 14.6783 51.827 14.3941 51.4363 14.2891L49.5564 13.7549C49.2672 13.6777 48.6518 13.8414 48.5411 13.8722L40.2709 16.0957L45.4674 21.3117L53.7376 19.0882C54.0176 19.0141 54.3684 18.8659 54.4268 18.6435L54.6699 17.5379C54.7283 17.3125 54.6483 17.2291 54.4453 17.0253L52.1562 14.7277L52.1531 14.7215ZM26.5211 13.9618C24.9674 12.4023 25.2289 11.8093 27.2964 11.2534L44.006 6.7601C46.3535 6.12702 47.7688 6.26908 50.3256 6.98554L54.7776 8.18376C57.1005 8.80758 58.2881 9.21831 59.7188 10.6543L64.7092 15.6634C66.0198 16.979 66.1306 18.3007 65.8199 19.2704L65.8045 19.326L68.2781 19.9622C70.6564 20.5737 71.7241 20.8578 72.9517 22.09L78.3513 27.5098C79.782 28.9458 79.7543 29.6314 79.3543 30.9377L78.582 33.646C78.139 35.1191 77.8067 35.78 75.29 36.4563L57.9127 41.1318C55.396 41.8082 54.1345 41.6785 52.4147 39.9552L26.5211 13.9587V13.9618Z" fill="#14DA14"/>
<path d="M58.0638 74.8797C57.8545 75.6641 58.0545 76.081 58.3007 76.325L59.5836 77.5449C59.8575 77.8876 60.119 77.8691 61.0697 77.6128L74.7641 73.9316C77.1116 73.3017 77.4962 73.6136 76.8963 75.8556L75.9517 79.3885C75.4133 81.4113 74.6041 82.3038 72.4227 82.8905L56.7192 87.1152C54.4271 87.7298 53.0426 87.4765 51.978 86.4111L49.1167 83.5329C48.206 82.4767 47.7414 81.3001 48.2368 79.4503L53.4764 59.8185C54.0025 57.8544 55.0855 56.3134 56.8423 54.5933L61.762 49.5719C63.5618 47.6819 65.4878 46.6968 67.6815 46.0544L83.385 41.8297C85.5664 41.243 85.9849 41.8112 85.4618 43.7722L84.5019 47.3607C83.9481 49.436 82.9482 50.2791 80.9329 50.8195L66.8508 54.6087C66.4601 54.7137 65.8417 55.0874 65.5432 55.4302L62.9342 58.0089C62.6511 58.293 62.3035 59.0125 62.1988 59.4016L58.0638 74.8859V74.8797Z" fill="#2179F8"/>
<path d="M18.2974 56.4185L23.0417 61.1805L23.2878 48.9821L18.2974 56.4154V56.4185ZM22.7986 71.6063L13.9623 62.7369L11.3563 66.6651C10.7133 67.5144 10.2364 67.746 9.0519 66.5571L6.13518 63.5553C4.74451 62.1594 4.78758 60.64 5.71675 59.2967L24.66 31.8641C25.2477 31.0303 25.6907 31.1199 26.7922 32.2255L29.8627 35.3044C31.0473 36.4964 31.1949 36.9257 31.1673 38.1826L30.5611 84.3698C30.4965 86.9392 30.355 87.8626 28.5551 86.0529L24.8323 82.3162C23.4416 80.9203 22.6479 79.5553 22.6632 77.9371L22.7986 71.6001V71.6063Z" fill="#F82659"/>
</svg>
