<svg width="436" height="96" viewBox="0 0 436 96" fill="none" xmlns="http://www.w3.org/2000/svg">
<g clip-path="url(#clip0_2048_439)">
<path d="M10.4701 17.6213L0.341586 55.563C-0.584503 59.0342 0.40312 62.7369 2.93217 65.2785L30.6041 93.0539C33.1362 95.5924 36.8252 96.5868 40.2834 95.6572L78.0838 85.4878C81.542 84.5582 84.2434 81.8468 85.1695 78.3787L95.298 40.437C96.2241 36.9659 95.2364 33.2631 92.7043 30.7215L65.0355 2.94617C62.5034 0.40458 58.8144 -0.586735 55.3562 0.342815L17.5558 10.5092C14.1006 11.4387 11.3993 14.1502 10.4732 17.6182" fill="black"/>
<path d="M65.2322 26.1448C65.1091 26.0212 64.8076 25.7896 64.423 25.6877L62.6816 25.2183C62.297 25.1133 61.9063 25.2183 61.5709 25.3109L52.0147 27.8803L57.1282 33.0129L67.0752 30.3385C67.3521 30.2644 67.5213 30.2212 67.5797 29.9958L67.7951 29.0014C67.8536 28.7759 67.6074 28.5289 67.5274 28.4486L65.2353 26.1478L65.2322 26.1448ZM52.1531 14.7215C52.1101 14.6782 51.827 14.3941 51.4363 14.2891L49.5564 13.7549C49.2672 13.6777 48.6518 13.8413 48.5411 13.8722L40.2709 16.0957L45.4674 21.3117L53.7376 19.0882C54.0176 19.0141 54.3684 18.8659 54.4268 18.6435L54.6699 17.5379C54.7283 17.3125 54.6483 17.2291 54.4453 17.0253L52.1562 14.7277L52.1531 14.7215ZM26.5211 13.9618C24.9674 12.4022 25.2289 11.8093 27.2964 11.2534L44.006 6.76009C46.3535 6.127 47.7688 6.26906 50.3256 6.98553L54.7776 8.18375C57.1005 8.80757 58.2881 9.2183 59.7188 10.6543L64.7092 15.6634C66.0198 16.979 66.1306 18.3007 65.8199 19.2704L65.8045 19.326L68.2781 19.9622C70.6564 20.5736 71.7241 20.8577 72.9517 22.0899L78.3513 27.5097C79.782 28.9458 79.7543 29.6313 79.3543 30.9377L78.582 33.646C78.139 35.1191 77.8067 35.78 75.29 36.4563L57.9127 41.1318C55.396 41.8081 54.1345 41.6784 52.4147 39.9552L26.5211 13.9587V13.9618Z" fill="#14DA14"/>
<path d="M58.0638 74.8798C57.8545 75.6642 58.0545 76.0811 58.3007 76.325L59.5836 77.5449C59.8575 77.8877 60.119 77.8691 61.0697 77.6128L74.7641 73.9317C77.1116 73.3017 77.4962 73.6136 76.8963 75.8556L75.9517 79.3885C75.4133 81.4113 74.6041 82.3038 72.4227 82.8906L56.7192 87.1152C54.4271 87.7298 53.0426 87.4766 51.978 86.4111L49.1167 83.5329C48.206 82.4767 47.7414 81.3001 48.2368 79.4503L53.4764 59.8186C54.0025 57.8545 55.0855 56.3135 56.8423 54.5933L61.762 49.5719C63.5618 47.6819 65.4878 46.6968 67.6815 46.0544L83.385 41.8298C85.5664 41.243 85.9849 41.8112 85.4618 43.7723L84.5019 47.3607C83.9481 49.436 82.9482 50.2791 80.9329 50.8195L66.8508 54.6088C66.4601 54.7138 65.8417 55.0874 65.5432 55.4302L62.9342 58.0089C62.6511 58.293 62.3035 59.0126 62.1988 59.4017L58.0638 74.8859V74.8798Z" fill="#2179F8"/>
<path d="M18.2974 56.4185L23.0417 61.1805L23.2878 48.9821L18.2974 56.4154V56.4185ZM22.7986 71.6063L13.9623 62.7369L11.3563 66.6651C10.7133 67.5144 10.2364 67.746 9.0519 66.5571L6.13518 63.5553C4.74451 62.1594 4.78758 60.64 5.71675 59.2967L24.66 31.8641C25.2477 31.0303 25.6907 31.1199 26.7922 32.2255L29.8627 35.3044C31.0473 36.4964 31.1949 36.9257 31.1673 38.1826L30.5611 84.3698C30.4965 86.9392 30.355 87.8626 28.5551 86.0529L24.8323 82.3162C23.4416 80.9203 22.6479 79.5553 22.6632 77.9371L22.7986 71.6001V71.6063Z" fill="#F82659"/>
<path d="M124.096 31.4101H128.708L126.385 24.6192L124.096 31.4101ZM130.314 36.1752H122.456L121.225 39.9151C121.022 40.4987 120.714 40.7736 119.788 40.7736H117.364C116.407 40.7736 115.93 40.5327 115.93 39.9151C115.93 39.7082 115.998 39.4704 116.099 39.1615L123.923 16.4941C124.13 15.8765 124.471 15.6696 125.293 15.6696H127.545C128.4 15.6696 128.606 15.8425 128.809 16.4231L136.772 39.2295C136.907 39.6062 136.975 39.9151 136.975 40.122C136.975 40.6006 136.633 40.7736 135.676 40.7736H133.046C132.018 40.7736 131.781 40.5327 131.575 39.8811L130.314 36.1752Z" fill="black"/>
<path d="M149.411 29.1465C149.411 28.8377 149.445 28.4609 149.137 28.1521L148.522 27.5005C148.214 27.1917 147.805 27.1237 147.565 27.1237H143.974V39.2295C143.974 40.4648 143.531 40.7736 142.334 40.7736H140.627C139.396 40.7736 139.018 40.4308 139.018 39.2295V15.4627C139.018 14.4003 139.362 13.9896 140.451 13.9896H142.467C143.663 13.9896 143.968 14.4003 143.968 15.4627V22.3555H148.546C149.774 22.3555 150.7 22.5933 151.552 23.4518L153.192 25.0639C153.943 25.7834 154.318 26.7439 154.318 27.8742V39.2264C154.318 40.3938 153.977 40.7705 152.85 40.7705H150.971C149.743 40.7705 149.398 40.4277 149.398 39.2264V29.1434L149.411 29.1465Z" fill="black"/>
<path d="M168.474 29.1465C168.474 28.8377 168.508 28.4609 168.2 28.1521L167.585 27.5005C167.277 27.1917 166.868 27.1237 166.628 27.1237H163.007V39.2295C163.007 40.4648 162.561 40.7736 161.367 40.7736H159.622C158.429 40.7736 158.053 40.4308 158.053 39.2295V23.8317C158.053 22.8002 158.361 22.3586 159.487 22.3586H167.616C168.846 22.3586 169.769 22.5964 170.658 23.4549L172.265 25.067C173.015 25.7865 173.391 26.747 173.391 27.8772V39.2295C173.391 40.3968 173.049 40.7736 171.923 40.7736H170.043C168.816 40.7736 168.471 40.4308 168.471 39.2295V29.1465H168.474Z" fill="black"/>
<path d="M194.746 39.2295C194.746 40.2949 194.472 40.7736 193.278 40.7736H178.689C177.526 40.7736 177.15 40.3598 177.15 39.2295V17.2137C177.15 15.9475 177.526 15.6696 178.689 15.6696H180.738C181.935 15.6696 182.344 15.9784 182.344 17.2137V35.7676H193.278C194.472 35.7676 194.746 36.1783 194.746 37.2777V39.2326V39.2295Z" fill="black"/>
<path d="M201.543 35.3908C201.543 35.5607 201.576 35.6657 201.644 35.7336L202.155 36.1783C202.256 36.2802 202.361 36.3482 202.598 36.3482H207.247V33.6398H202.669C202.395 33.6398 202.293 33.7078 202.192 33.8097L201.644 34.3594C201.543 34.3934 201.543 34.5323 201.543 34.6682V35.3878V35.3908ZM201.952 40.7736C200.38 40.7736 199.798 40.4648 198.946 39.6062L197.749 38.4049C197.066 37.6854 196.657 36.9658 196.657 35.7645V34.0506C196.657 32.9172 196.964 32.4045 197.715 31.614L198.977 30.3478C199.832 29.5233 200.586 29.2144 201.986 29.2144H207.247V28.4609C207.247 28.1861 207.21 28.0162 207.108 27.9112L206.324 27.1206C206.222 26.9847 205.813 26.9508 205.742 26.9508H199.558C198.398 26.9508 197.952 26.642 197.952 25.5456V23.8657C197.952 22.7663 198.294 22.3586 199.493 22.3586H206.702C208.034 22.3586 208.65 22.7014 209.505 23.5599L211.007 25.067C211.757 25.8205 212.136 26.5092 212.136 27.5036V38.9577C212.136 40.2949 211.726 40.7767 210.323 40.7767H201.955L201.952 40.7736Z" fill="black"/>
<path d="M226.276 28.5999C226.276 28.393 226.209 28.2231 226.107 28.0842L225.424 27.3646C225.286 27.1917 224.978 27.1237 224.741 27.1237H220.812V36.0054H224.809C225.046 36.0054 225.252 35.9375 225.424 35.7645L226.141 35.045C226.209 34.9431 226.276 34.7022 226.276 34.5323V28.5999ZM215.889 15.4627C215.889 14.3972 216.129 13.9896 217.222 13.9896H219.375C220.504 13.9896 220.809 14.2644 220.809 15.4627V22.3555H225.455C226.756 22.3555 227.744 22.6983 228.599 23.5538L230.101 25.0639C230.851 25.7834 231.23 26.7099 231.23 27.8062V35.3507C231.23 36.4501 230.821 37.3395 230.101 38.0622L228.599 39.6032C227.71 40.4957 226.685 40.7335 225.455 40.7705H217.732C216.332 40.7705 215.886 40.3598 215.886 39.2264V15.4596L215.889 15.4627Z" fill="black"/>
<path d="M131.101 65.4113C131.101 65.2075 131.064 65.0346 130.963 64.8987L130.175 64.1081C130.04 64.0062 129.766 63.9012 129.526 63.9012H123.068V69.0091H129.664C129.901 69.0091 130.04 68.9751 130.175 68.8392L130.963 68.0487C131.101 67.9128 131.101 67.7059 131.101 67.57V65.4082V65.4113ZM130.28 55.3283C130.28 55.1894 130.212 54.9855 130.111 54.8497L129.255 53.9911C129.154 53.8892 128.88 53.8522 128.708 53.8522H123.068V58.9631H128.708C128.945 58.9631 129.117 58.8952 129.289 58.7254L130.111 57.9008C130.246 57.7649 130.28 57.626 130.28 57.4561V55.3283ZM117.945 50.4243C117.945 49.2229 118.355 48.8832 119.518 48.8832H129.458C130.824 48.8832 131.781 49.226 132.603 50.0846L134.209 51.7306C134.959 52.5211 135.335 53.2716 135.335 54.405V57.9718C135.335 59.2751 134.824 60.1676 134.141 60.8192L134.04 60.9211L135.098 61.9155C135.886 62.7061 136.261 63.2527 136.261 64.315V68.4656C136.261 69.6329 135.953 70.3525 135.169 71.106L133.461 72.786C132.572 73.6445 131.821 73.9873 130.351 73.9873H119.93C118.493 73.9873 117.948 73.6785 117.948 72.3752V50.4273L117.945 50.4243Z" fill="black"/>
<path d="M144.799 68.0178C144.799 68.2926 144.934 68.5304 145.073 68.6694L145.414 69.0122C145.519 69.1141 145.826 69.1851 145.962 69.1851H147.26C148.318 69.1851 148.592 69.4939 148.592 70.6242V72.4771C148.592 73.5734 148.558 73.9873 147.223 73.9873H144.559C143.294 73.9873 142.885 73.5734 142.165 72.8539L141.073 71.7916C140.116 70.7971 139.876 70.1116 139.876 68.7713V48.7103C139.876 47.5769 140.082 47.2032 141.313 47.2032H143.294C144.525 47.2032 144.796 47.58 144.796 48.7103V68.0178H144.799Z" fill="black"/>
<path d="M160.856 61.8136C160.856 61.6067 160.789 61.4028 160.687 61.2978L159.97 60.5443C159.869 60.4053 159.629 60.3374 159.355 60.3374H156.315C156.041 60.3374 155.872 60.4053 155.734 60.5443L155.017 61.2978C154.915 61.4028 154.844 61.6067 154.844 61.8136V67.746C154.844 67.9498 154.881 68.1567 154.983 68.2587L155.734 69.0122C155.835 69.1511 156.041 69.2191 156.281 69.2191H159.392C159.629 69.2191 159.869 69.1511 160.007 69.0122L160.724 68.2587C160.792 68.1567 160.859 67.9498 160.859 67.746V61.8136H160.856ZM163.179 56.7705L164.681 58.2776C165.431 58.9971 165.776 59.9236 165.776 61.0199V68.5644C165.776 69.6638 165.367 70.5192 164.65 71.2758L163.145 72.8168C162.293 73.7093 161.404 73.9842 160.035 73.9842H155.697C154.297 73.9842 153.408 73.7093 152.552 72.8168L151.051 71.2758C150.334 70.5223 149.925 69.6638 149.925 68.5644V61.0199C149.925 59.9575 150.266 58.9971 150.983 58.2776L152.522 56.7705C153.377 55.912 154.537 55.5723 155.869 55.5723H159.866C161.164 55.5723 162.324 55.9151 163.179 56.7705Z" fill="black"/>
<path d="M173.631 67.4372C173.631 67.6101 173.665 68.1567 173.766 68.2617L174.517 68.9813C174.655 69.1203 174.824 69.2222 175.064 69.2222H181.762C183.061 69.2222 183.23 69.531 183.23 70.6273V72.5482C183.23 73.6445 182.889 73.9873 181.793 73.9873H174.311C173.012 73.9873 172.157 73.6785 171.305 72.8199L169.803 71.2789C169.086 70.5254 168.708 69.7008 168.708 68.5675V61.023C168.708 59.9236 169.05 59.0002 169.803 58.2807L171.305 56.7705C172.126 55.946 172.978 55.6032 174.311 55.5723H181.793C183.058 55.5723 183.23 55.983 183.23 57.0454V58.9662C183.23 60.0656 182.956 60.3374 181.762 60.3374H175.098C174.861 60.3374 174.655 60.4053 174.554 60.5443L173.803 61.2978C173.665 61.4028 173.631 61.6067 173.631 61.8136V67.4372Z" fill="black"/>
<path d="M193.924 64.349L201.475 72.6501C201.681 72.9249 201.782 73.1998 201.782 73.3696C201.782 73.7464 201.441 73.9873 201.032 73.9873H197.617C196.9 73.9873 196.558 73.9162 196.112 73.3696L191.057 67.641V72.4771C191.057 73.5734 190.854 73.9873 189.589 73.9873H187.503C186.343 73.9873 186.104 73.6105 186.104 72.5111V48.6084C186.104 47.546 186.377 47.2032 187.605 47.2032H189.553C190.682 47.2032 191.057 47.5121 191.057 48.6084V61.0909L196.352 56.2208C196.764 55.844 197.001 55.6032 197.721 55.5692H201.102C201.613 55.5692 201.853 55.878 201.853 56.1868C201.853 56.4617 201.752 56.7365 201.546 56.9404L193.924 64.3459V64.349Z" fill="black"/>
<path d="M208.068 67.4372C208.068 67.6101 208.102 68.1567 208.203 68.2617L208.954 68.9813C209.093 69.1203 209.262 69.2222 209.502 69.2222H216.2C217.498 69.2222 217.667 69.531 217.667 70.6273V72.5482C217.667 73.6445 217.326 73.9873 216.231 73.9873H208.748C207.45 73.9873 206.594 73.6785 205.742 72.8199L204.241 71.2789C203.524 70.5254 203.148 69.7008 203.148 68.5675V61.023C203.148 59.9236 203.49 59.0002 204.241 58.2807L205.742 56.7705C206.564 55.946 207.416 55.6032 208.748 55.5723H216.231C217.498 55.5723 217.667 55.983 217.667 57.0454V58.9662C217.667 60.0656 217.394 60.3374 216.2 60.3374H209.536C209.299 60.3374 209.093 60.4053 208.991 60.5443L208.24 61.2978C208.102 61.4028 208.071 61.6067 208.071 61.8136V67.4372H208.068Z" fill="black"/>
<path d="M230.922 62.3602C230.922 62.0513 230.956 61.6746 230.648 61.3658L230.033 60.7142C229.725 60.4053 229.316 60.3374 229.076 60.3374H225.489V72.4432C225.489 73.6784 225.046 73.9873 223.849 73.9873H222.141C220.911 73.9873 220.535 73.6445 220.535 72.4432V48.6763C220.535 47.614 220.877 47.2032 221.969 47.2032H223.984C225.181 47.2032 225.489 47.614 225.489 48.6763V55.5692H230.067C231.294 55.5692 232.217 55.807 233.073 56.6655L234.713 58.2776C235.463 58.9971 235.839 59.9575 235.839 61.0878V72.4401C235.839 73.6043 235.497 73.9842 234.371 73.9842H232.491C231.261 73.9842 230.919 73.6414 230.919 72.4401V62.3571L230.922 62.3602Z" fill="black"/>
<path d="M243.632 68.6014C243.632 68.7744 243.666 68.8763 243.733 68.9442L244.244 69.3889C244.349 69.4909 244.45 69.5619 244.69 69.5619H249.336V66.8504H244.758C244.484 66.8504 244.383 66.9215 244.281 67.0234L243.733 67.5731C243.632 67.607 243.632 67.746 243.632 67.8819V68.6014ZM244.041 73.9842C242.469 73.9842 241.887 73.6754 241.035 72.8199L239.841 71.6186C239.158 70.8991 238.746 70.1795 238.746 68.9782V67.2643C238.746 66.1309 239.054 65.6182 239.804 64.8277L241.069 63.5584C241.924 62.7369 242.675 62.4281 244.075 62.4281H249.336V61.6746C249.336 61.3997 249.299 61.2299 249.198 61.1249L248.413 60.3343C248.312 60.1984 247.902 60.1645 247.832 60.1645H241.644C240.484 60.1645 240.038 59.8556 240.038 58.7593V57.0763C240.038 55.9799 240.38 55.5692 241.577 55.5692H248.785C250.121 55.5692 250.733 55.912 251.588 56.7674L253.093 58.2745C253.843 59.028 254.219 59.7136 254.219 60.7111V72.1652C254.219 73.5024 253.81 73.9811 252.407 73.9811H244.035L244.041 73.9842Z" fill="black"/>
<path d="M260.677 47.7499C261.052 47.4071 261.36 47.2002 261.874 47.2002H263.101C263.683 47.2002 263.852 47.438 264.23 47.7838L264.846 48.4354C265.255 48.8462 265.461 49.121 265.461 49.5318V50.801C265.461 51.2797 265.258 51.5545 264.846 51.9344L264.23 52.586C263.821 52.9967 263.547 53.2036 263.135 53.2036H261.904C261.394 53.2036 261.018 52.8948 260.643 52.5181L260.095 51.9035C259.686 51.5237 259.48 51.3198 259.48 50.8041V49.5348C259.48 49.0191 259.585 48.8832 260.095 48.3675L260.677 47.7499ZM269.113 72.4771C269.113 73.6105 268.876 73.9873 267.679 73.9873H257.874C256.782 73.9873 256.373 73.6105 256.373 72.4771V70.6582C256.373 69.5619 256.782 69.1511 257.874 69.1511H260.332V60.4053H257.874C256.782 60.4053 256.373 60.0286 256.373 58.9323V57.0793C256.373 55.878 256.782 55.5723 257.874 55.5723H263.717C264.843 55.5723 265.218 56.0849 265.218 57.0793V69.1511H267.676C268.873 69.1511 269.11 69.46 269.11 70.6582V72.4771H269.113Z" fill="black"/>
<path d="M282.066 62.3602C282.066 62.0514 282.1 61.6746 281.792 61.3658L281.177 60.7142C280.869 60.4053 280.457 60.3374 280.22 60.3374H276.599V72.4432C276.599 73.6785 276.153 73.9873 274.959 73.9873H273.215C272.021 73.9873 271.646 73.6445 271.646 72.4432V57.0454C271.646 56.0139 271.953 55.5723 273.079 55.5723H281.208C282.439 55.5723 283.362 55.8101 284.251 56.6686L285.857 58.2807C286.608 59.0002 286.983 59.9606 286.983 61.0909V72.4432C286.983 73.6074 286.641 73.9873 285.512 73.9873H283.632C282.405 73.9873 282.063 73.6445 282.063 72.4432V62.3602H282.066Z" fill="black"/>
<path d="M304.92 66.5107C304.92 66.8875 305.055 67.1623 305.228 67.3013L306.695 68.7744C306.864 68.9782 307.003 69.0152 307.483 69.0152H316.193C317.494 69.0152 317.833 69.2901 317.833 70.5223V72.4432C317.833 73.5734 317.457 73.9842 316.227 73.9842H306.729C305.397 73.9842 304.268 73.6074 303.449 72.7859L300.988 70.2814C300.237 69.4939 299.76 68.4995 299.76 67.4341V55.4642C299.76 54.2999 300.203 53.3735 300.988 52.5829L303.412 50.0784C304.234 49.1859 305.464 48.9481 306.726 48.877H316.224C317.454 48.877 317.83 49.3928 317.83 50.4211V52.308C317.83 53.5094 317.319 53.8521 316.19 53.8521H307.375C307.101 53.8521 306.827 53.988 306.726 54.093L305.12 55.702C304.981 55.8039 304.914 56.1158 304.914 56.3536V66.5045L304.92 66.5107Z" fill="black"/>
<path d="M330.884 61.8136C330.884 61.6067 330.813 61.4028 330.712 61.2978L329.995 60.5443C329.893 60.4053 329.65 60.3374 329.38 60.3374H326.34C326.066 60.3374 325.897 60.4053 325.758 60.5443L325.041 61.2978C324.94 61.4028 324.872 61.6067 324.872 61.8136V67.746C324.872 67.9498 324.906 68.1567 325.008 68.2587L325.758 69.0122C325.86 69.1511 326.066 69.2191 326.306 69.2191H329.417C329.653 69.2191 329.897 69.1511 330.032 69.0122L330.749 68.2587C330.816 68.1567 330.887 67.9498 330.887 67.746V61.8136H330.884ZM333.207 56.7705L334.712 58.2776C335.462 58.9971 335.807 59.9236 335.807 61.0199V68.5644C335.807 69.6638 335.395 70.5192 334.678 71.2758L333.176 72.8168C332.321 73.7093 331.435 73.9842 330.066 73.9842H325.728C324.328 73.9842 323.439 73.7093 322.583 72.8168L321.079 71.2758C320.362 70.5223 319.953 69.6638 319.953 68.5644V61.0199C319.953 59.9575 320.294 58.9971 321.011 58.2776L322.549 56.7705C323.405 55.912 324.565 55.5723 325.897 55.5723H329.897C331.195 55.5723 332.355 55.9151 333.207 56.7705Z" fill="black"/>
<path d="M347.794 60.3374H344.071V72.4432C344.071 73.6445 343.625 73.9873 342.397 73.9873H340.724C339.462 73.9873 339.118 73.6445 339.118 72.4432V57.0454C339.118 55.946 339.493 55.5723 340.622 55.5723H355.553C356.713 55.5723 357.741 55.8101 358.63 56.6686L360.236 58.2807C360.953 59.0002 361.332 60.0286 361.332 61.162V72.4432C361.332 73.6074 360.987 73.9873 359.793 73.9873H357.981C356.818 73.9873 356.409 73.6445 356.409 72.4432V61.8784C356.409 61.6746 356.341 61.5017 356.206 61.3658L355.486 60.6123C355.317 60.4393 355.178 60.3374 354.904 60.3374H352.72V72.4432C352.72 73.6445 352.446 73.9873 351.114 73.9873H349.372C348.145 73.9873 347.8 73.6445 347.8 72.4432V60.3374H347.794Z" fill="black"/>
<path d="M375.293 61.8136C375.293 61.6067 375.222 61.4368 375.121 61.2978L374.438 60.5783C374.303 60.4084 374.029 60.3405 373.755 60.3405H369.894V69.2222H373.856C374.096 69.2222 374.303 69.1542 374.438 68.9813L375.158 68.2617C375.259 68.1598 375.293 67.9189 375.293 67.7491V61.8167V61.8136ZM364.94 57.0793C364.94 55.9799 365.315 55.5723 366.58 55.5723H374.472C375.77 55.5723 376.761 55.9151 377.65 56.7705L379.151 58.2776C379.902 58.9971 380.213 59.9236 380.247 61.0199V68.5644C380.247 69.6638 379.871 70.5532 379.151 71.2758L377.65 72.8168C376.761 73.6754 375.736 73.9842 374.472 73.9842H369.894V79.8487C369.894 80.979 369.518 81.3557 368.321 81.3557H366.475C365.312 81.3557 364.937 81.0129 364.937 79.8487V57.0763L364.94 57.0793Z" fill="black"/>
<path d="M387.797 68.6014C387.797 68.7744 387.831 68.8763 387.898 68.9442L388.409 69.3889C388.514 69.4909 388.615 69.5619 388.855 69.5619H393.504V66.8504H388.926C388.652 66.8504 388.551 66.9215 388.449 67.0234L387.902 67.5731C387.8 67.607 387.8 67.746 387.8 67.8819V68.6014H387.797ZM388.206 73.9842C386.634 73.9842 386.056 73.6754 385.2 72.8199L384.003 71.6186C383.32 70.8991 382.911 70.1795 382.911 68.9782V67.2643C382.911 66.1309 383.219 65.6182 383.97 64.8277L385.231 63.5584C386.086 62.7369 386.84 62.4281 388.24 62.4281H393.501V61.6746C393.501 61.3997 393.464 61.2299 393.363 61.1249L392.575 60.3343C392.474 60.1984 392.064 60.1645 391.994 60.1645H385.809C384.649 60.1645 384.203 59.8556 384.203 58.7593V57.0763C384.203 55.9799 384.545 55.5692 385.745 55.5692H392.953C394.286 55.5692 394.901 55.912 395.756 56.7674L397.258 58.2745C398.009 59.028 398.387 59.7136 398.387 60.7111V72.1652C398.387 73.5024 397.978 73.9811 396.575 73.9811H388.203L388.206 73.9842Z" fill="black"/>
<path d="M412.497 62.3602C412.497 62.0514 412.531 61.6746 412.22 61.3658L411.608 60.7142C411.3 60.4053 410.888 60.3374 410.651 60.3374H407.03V72.4432C407.03 73.6785 406.584 73.9873 405.39 73.9873H403.645C402.452 73.9873 402.073 73.6445 402.073 72.4432V57.0454C402.073 56.0139 402.381 55.5723 403.507 55.5723H411.639C412.869 55.5723 413.792 55.8101 414.682 56.6686L416.288 58.2807C417.038 59.0002 417.417 59.9606 417.417 61.0909V72.4432C417.417 73.6074 417.075 73.9873 415.946 73.9873H414.066C412.839 73.9873 412.497 73.6445 412.497 72.4432V62.3602Z" fill="black"/>
<path d="M425.613 67.1963C425.613 67.5051 425.579 67.8819 425.887 68.1907L426.536 68.8423C426.81 69.1172 427.219 69.2191 427.456 69.2191H431.08V57.2152C431.08 56.0849 431.354 55.5692 432.72 55.5692H434.397C435.695 55.5692 436.003 55.9491 436.003 57.2523V76.5937C436.003 77.6221 435.695 78.5486 435.114 79.1322L433.372 80.8802C432.52 81.7387 431.563 82.0104 430.265 82.0104H424.182C423.056 82.0104 422.647 81.5657 422.647 80.5374V78.6844C422.647 77.5171 423.09 77.2453 424.253 77.2453H429.65C429.856 77.2453 430.059 77.1434 430.163 77.0724L430.951 76.2509C431.053 76.1459 431.086 75.9421 431.086 75.7352V73.9873H426.508C425.244 73.9873 424.321 73.7495 423.468 72.891L421.829 71.2789C421.078 70.5254 420.736 69.5989 420.736 68.4656V57.1133C420.736 55.9491 421.044 55.5692 422.204 55.5692H424.05C425.278 55.5692 425.619 55.912 425.619 57.1133V67.1963H425.613Z" fill="black"/>
</g>
<defs>
<clipPath id="clip0_2048_439">
<rect width="436" height="96" fill="white"/>
</clipPath>
</defs>
</svg>
