<svg width="436" height="96" viewBox="0 0 436 96" fill="none" xmlns="http://www.w3.org/2000/svg">
<g clip-path="url(#clip0_2048_377)">
<path d="M55.3557 0.342822C58.8139 -0.586729 62.5032 0.404743 65.0354 2.94634L92.7043 30.7217C95.2362 33.2632 96.2239 36.9656 95.2981 40.4366L85.1692 78.379C84.243 81.8469 81.5413 84.5578 78.0832 85.4874L40.2834 95.6573C36.8252 96.5868 33.1359 95.5923 30.6037 93.0538L2.93185 65.2784C0.402936 62.7368 -0.585033 59.0336 0.341033 55.5625L10.4729 17.6182C11.399 14.1502 14.1007 11.4384 17.5559 10.5088L55.3557 0.342822ZM85.4612 43.7725C85.9842 41.8116 85.5662 41.2434 83.385 41.8301L67.6809 46.0547C65.4873 46.6971 63.5617 47.6824 61.7619 49.5723L56.842 54.5938C55.0854 56.3138 54.0019 57.8544 53.4758 59.8184L48.2365 79.4502C47.7412 81.3001 48.2057 82.4771 49.1164 83.5333L51.9778 86.4112C53.0423 87.4765 54.4269 87.7298 56.719 87.1153L72.4221 82.8907C74.6034 82.3039 75.413 81.4114 75.9514 79.3887L76.8957 75.8555C77.4957 73.6136 77.1113 73.3017 74.7639 73.9317L61.0695 77.6124C60.1189 77.8687 59.857 77.8877 59.5832 77.545L58.3 76.3252C58.0539 76.0813 57.8545 75.6642 58.0637 74.8799V74.8858L62.1985 59.4014C62.3031 59.0123 62.6508 58.2929 62.9338 58.0088L65.5432 55.4297C65.8418 55.0871 66.4602 54.7134 66.8508 54.6084L80.9328 50.8194C82.9479 50.2789 83.9474 49.4356 84.5012 47.3604L85.4612 43.7725ZM26.7922 32.2256C25.6907 31.1201 25.247 31.0305 24.6594 31.8643L5.71603 59.2969C4.7871 60.6402 4.74443 62.16 6.13498 63.5557L9.05197 66.5567C10.2364 67.7455 10.7127 67.5142 11.3557 66.6651L13.9621 62.7374L22.7981 71.6065L22.6633 77.9375C22.6481 79.5556 23.4417 80.9207 24.8322 82.3165L28.5549 86.0528C30.3547 87.8624 30.4961 86.9393 30.5608 84.3702L31.1672 38.1827C31.1949 36.9259 31.0468 36.4966 29.8625 35.3047L26.7922 32.2256ZM23.0412 61.1807L18.2971 56.418V56.4151L23.2873 48.9825L23.0412 61.1807ZM50.3254 6.9854C47.7688 6.26898 46.3534 6.12681 44.0061 6.75981L27.2961 11.253C25.2287 11.8088 24.967 12.4025 26.5207 13.962V13.959L52.4143 39.9551C54.1341 41.6783 55.3958 41.8081 57.9123 41.1319L75.2903 36.4561C77.8066 35.7798 78.1392 35.1186 78.5822 33.6456L79.3537 30.9375C79.7537 29.6312 79.7815 28.9458 78.3508 27.5098L72.9514 22.0899C71.7238 20.8578 70.6558 20.5734 68.2776 19.962L65.8039 19.3262L65.8195 19.2706C66.1303 18.3009 66.0199 16.9787 64.7092 15.6631L59.719 10.6543C58.2883 9.21835 57.1004 8.80745 54.7776 8.18364L50.3254 6.9854ZM61.5705 25.3106C61.9059 25.2179 62.2973 25.1128 62.6819 25.2178L64.4231 25.6875C64.8073 25.7894 65.1084 26.021 65.2317 26.1446L65.2356 26.1475L67.5276 28.4483C67.6075 28.5285 67.8533 28.7757 67.7951 29.001L67.5793 29.9961C67.5208 30.2211 67.352 30.2649 67.0754 30.3389L57.1281 33.0127L52.0149 27.8799L61.5705 25.3106ZM49.5559 13.7549L51.4358 14.2891C51.8262 14.394 52.1092 14.6782 52.1526 14.7217L52.1565 14.7276L54.4455 17.0254C54.6484 17.2291 54.7286 17.3128 54.6701 17.5381L54.427 18.6436C54.3685 18.8659 54.0175 19.0138 53.7375 19.0879L45.467 21.3116L40.2707 16.0958L48.5412 13.8721C48.6527 13.8411 49.2667 13.678 49.5559 13.7549Z" fill="white"/>
<path d="M124.096 31.4101H128.708L126.385 24.6192L124.096 31.4101ZM130.314 36.1752H122.456L121.225 39.9151C121.022 40.4987 120.714 40.7736 119.788 40.7736H117.364C116.407 40.7736 115.93 40.5327 115.93 39.9151C115.93 39.7082 115.998 39.4704 116.099 39.1615L123.923 16.4941C124.13 15.8765 124.471 15.6696 125.293 15.6696H127.545C128.4 15.6696 128.606 15.8425 128.809 16.4231L136.772 39.2295C136.907 39.6062 136.975 39.9151 136.975 40.122C136.975 40.6006 136.633 40.7736 135.676 40.7736H133.046C132.018 40.7736 131.781 40.5327 131.575 39.8811L130.314 36.1752Z" fill="white"/>
<path d="M149.411 29.1465C149.411 28.8377 149.445 28.4609 149.137 28.1521L148.522 27.5005C148.214 27.1917 147.805 27.1237 147.565 27.1237H143.974V39.2295C143.974 40.4648 143.531 40.7736 142.334 40.7736H140.627C139.396 40.7736 139.018 40.4308 139.018 39.2295V15.4626C139.018 14.4003 139.362 13.9896 140.451 13.9896H142.467C143.663 13.9896 143.968 14.4003 143.968 15.4626V22.3555H148.546C149.774 22.3555 150.7 22.5933 151.552 23.4518L153.192 25.0639C153.943 25.7834 154.318 26.7439 154.318 27.8741V39.2264C154.318 40.3937 153.977 40.7705 152.85 40.7705H150.971C149.743 40.7705 149.398 40.4277 149.398 39.2264V29.1434L149.411 29.1465Z" fill="white"/>
<path d="M168.474 29.1465C168.474 28.8377 168.508 28.4609 168.2 28.1521L167.585 27.5005C167.277 27.1917 166.868 27.1237 166.628 27.1237H163.007V39.2295C163.007 40.4648 162.561 40.7736 161.367 40.7736H159.622C158.429 40.7736 158.053 40.4308 158.053 39.2295V23.8317C158.053 22.8002 158.361 22.3586 159.487 22.3586H167.616C168.846 22.3586 169.769 22.5964 170.658 23.4549L172.265 25.067C173.015 25.7865 173.391 26.747 173.391 27.8772V39.2295C173.391 40.3968 173.049 40.7736 171.923 40.7736H170.043C168.816 40.7736 168.471 40.4308 168.471 39.2295V29.1465H168.474Z" fill="white"/>
<path d="M194.746 39.2295C194.746 40.2949 194.472 40.7736 193.278 40.7736H178.689C177.526 40.7736 177.15 40.3598 177.15 39.2295V17.2137C177.15 15.9475 177.526 15.6696 178.689 15.6696H180.738C181.935 15.6696 182.344 15.9784 182.344 17.2137V35.7676H193.278C194.472 35.7676 194.746 36.1783 194.746 37.2777V39.2326V39.2295Z" fill="white"/>
<path d="M201.543 35.3908C201.543 35.5607 201.576 35.6657 201.644 35.7336L202.155 36.1783C202.256 36.2802 202.361 36.3482 202.598 36.3482H207.247V33.6398H202.669C202.395 33.6398 202.293 33.7078 202.192 33.8097L201.644 34.3594C201.543 34.3934 201.543 34.5323 201.543 34.6682V35.3878V35.3908ZM201.952 40.7736C200.38 40.7736 199.798 40.4648 198.946 39.6062L197.749 38.4049C197.066 37.6854 196.657 36.9658 196.657 35.7645V34.0506C196.657 32.9172 196.964 32.4045 197.715 31.614L198.977 30.3478C199.832 29.5233 200.586 29.2144 201.986 29.2144H207.247V28.4609C207.247 28.1861 207.21 28.0162 207.108 27.9112L206.324 27.1206C206.222 26.9847 205.813 26.9508 205.742 26.9508H199.558C198.398 26.9508 197.952 26.642 197.952 25.5456V23.8657C197.952 22.7663 198.294 22.3586 199.493 22.3586H206.702C208.034 22.3586 208.65 22.7014 209.505 23.5599L211.007 25.067C211.757 25.8205 212.136 26.5092 212.136 27.5036V38.9577C212.136 40.2949 211.726 40.7767 210.323 40.7767H201.955L201.952 40.7736Z" fill="white"/>
<path d="M226.276 28.5999C226.276 28.393 226.209 28.2231 226.107 28.0841L225.424 27.3646C225.286 27.1916 224.978 27.1237 224.741 27.1237H220.812V36.0054H224.809C225.046 36.0054 225.252 35.9375 225.424 35.7645L226.141 35.045C226.209 34.9431 226.276 34.7022 226.276 34.5323V28.5999ZM215.889 15.4626C215.889 14.3972 216.129 13.9896 217.222 13.9896H219.375C220.504 13.9896 220.809 14.2644 220.809 15.4626V22.3555H225.455C226.756 22.3555 227.744 22.6983 228.599 23.5537L230.101 25.0639C230.851 25.7834 231.23 26.7099 231.23 27.8062V35.3507C231.23 36.4501 230.821 37.3395 230.101 38.0621L228.599 39.6032C227.71 40.4956 226.685 40.7334 225.455 40.7705H217.732C216.332 40.7705 215.886 40.3598 215.886 39.2264V15.4596L215.889 15.4626Z" fill="white"/>
<path d="M131.101 65.4113C131.101 65.2074 131.064 65.0345 130.963 64.8986L130.175 64.108C130.04 64.0061 129.766 63.9011 129.526 63.9011H123.068V69.009H129.664C129.901 69.009 130.04 68.9751 130.175 68.8392L130.963 68.0486C131.101 67.9127 131.101 67.7058 131.101 67.5699V65.4082V65.4113ZM130.28 55.3283C130.28 55.1893 130.212 54.9855 130.111 54.8496L129.255 53.9911C129.154 53.8892 128.88 53.8521 128.708 53.8521H123.068V58.9631H128.708C128.945 58.9631 129.117 58.8951 129.289 58.7253L130.111 57.9007C130.246 57.7649 130.28 57.6259 130.28 57.456V55.3283ZM117.945 50.4242C117.945 49.2229 118.355 48.8832 119.518 48.8832H129.458C130.824 48.8832 131.781 49.226 132.603 50.0845L134.209 51.7305C134.959 52.5211 135.335 53.2715 135.335 54.4049V57.9718C135.335 59.275 134.824 60.1675 134.141 60.8191L134.04 60.921L135.098 61.9154C135.886 62.706 136.261 63.2526 136.261 64.315V68.4655C136.261 69.6328 135.953 70.3524 135.169 71.1059L133.461 72.7859C132.572 73.6444 131.821 73.9872 130.351 73.9872H119.93C118.493 73.9872 117.948 73.6784 117.948 72.3752V50.4273L117.945 50.4242Z" fill="white"/>
<path d="M144.799 68.0178C144.799 68.2926 144.934 68.5304 145.073 68.6694L145.414 69.0122C145.519 69.1141 145.826 69.1851 145.962 69.1851H147.26C148.318 69.1851 148.592 69.4939 148.592 70.6242V72.4771C148.592 73.5734 148.558 73.9873 147.223 73.9873H144.559C143.294 73.9873 142.885 73.5734 142.165 72.8539L141.073 71.7916C140.116 70.7971 139.876 70.1116 139.876 68.7713V48.7103C139.876 47.5769 140.082 47.2032 141.313 47.2032H143.294C144.525 47.2032 144.796 47.58 144.796 48.7103V68.0178H144.799Z" fill="white"/>
<path d="M160.856 61.8135C160.856 61.6066 160.789 61.4028 160.687 61.2978L159.97 60.5443C159.869 60.4053 159.629 60.3374 159.355 60.3374H156.315C156.041 60.3374 155.872 60.4053 155.734 60.5443L155.017 61.2978C154.915 61.4028 154.844 61.6066 154.844 61.8135V67.746C154.844 67.9498 154.881 68.1567 154.983 68.2586L155.734 69.0121C155.835 69.1511 156.041 69.2191 156.281 69.2191H159.392C159.629 69.2191 159.869 69.1511 160.007 69.0121L160.724 68.2586C160.792 68.1567 160.859 67.9498 160.859 67.746V61.8135H160.856ZM163.179 56.7705L164.681 58.2775C165.431 58.9971 165.776 59.9235 165.776 61.0199V68.5644C165.776 69.6638 165.367 70.5192 164.65 71.2758L163.145 72.8168C162.293 73.7093 161.404 73.9842 160.035 73.9842H155.697C154.297 73.9842 153.408 73.7093 152.552 72.8168L151.051 71.2758C150.334 70.5223 149.925 69.6638 149.925 68.5644V61.0199C149.925 59.9575 150.266 58.9971 150.983 58.2775L152.522 56.7705C153.377 55.912 154.537 55.5723 155.869 55.5723H159.866C161.164 55.5723 162.324 55.9151 163.179 56.7705Z" fill="white"/>
<path d="M173.631 67.4372C173.631 67.6101 173.665 68.1567 173.766 68.2617L174.517 68.9813C174.655 69.1202 174.824 69.2221 175.064 69.2221H181.762C183.061 69.2221 183.23 69.531 183.23 70.6273V72.5481C183.23 73.6445 182.889 73.9872 181.793 73.9872H174.311C173.012 73.9872 172.157 73.6784 171.305 72.8199L169.803 71.2789C169.086 70.5254 168.708 69.7008 168.708 68.5674V61.023C168.708 59.9236 169.05 59.0002 169.803 58.2806L171.305 56.7705C172.126 55.9459 172.978 55.6031 174.311 55.5723H181.793C183.058 55.5723 183.23 55.983 183.23 57.0453V58.9662C183.23 60.0656 182.956 60.3374 181.762 60.3374H175.098C174.861 60.3374 174.655 60.4053 174.554 60.5443L173.803 61.2978C173.665 61.4028 173.631 61.6066 173.631 61.8135V67.4372Z" fill="white"/>
<path d="M193.924 64.349L201.475 72.6501C201.681 72.9249 201.782 73.1998 201.782 73.3696C201.782 73.7464 201.441 73.9873 201.032 73.9873H197.617C196.9 73.9873 196.558 73.9162 196.112 73.3696L191.057 67.641V72.4771C191.057 73.5734 190.854 73.9873 189.589 73.9873H187.503C186.343 73.9873 186.104 73.6105 186.104 72.5111V48.6084C186.104 47.546 186.377 47.2032 187.605 47.2032H189.553C190.682 47.2032 191.057 47.5121 191.057 48.6084V61.0909L196.352 56.2208C196.764 55.844 197.001 55.6032 197.721 55.5692H201.102C201.613 55.5692 201.853 55.878 201.853 56.1868C201.853 56.4617 201.752 56.7365 201.546 56.9404L193.924 64.3459V64.349Z" fill="white"/>
<path d="M208.068 67.4372C208.068 67.6101 208.102 68.1567 208.203 68.2617L208.954 68.9813C209.093 69.1202 209.262 69.2221 209.502 69.2221H216.2C217.498 69.2221 217.667 69.531 217.667 70.6273V72.5481C217.667 73.6445 217.326 73.9872 216.231 73.9872H208.748C207.45 73.9872 206.594 73.6784 205.742 72.8199L204.241 71.2789C203.524 70.5254 203.148 69.7008 203.148 68.5674V61.023C203.148 59.9236 203.49 59.0002 204.241 58.2806L205.742 56.7705C206.564 55.9459 207.416 55.6031 208.748 55.5723H216.231C217.498 55.5723 217.667 55.983 217.667 57.0453V58.9662C217.667 60.0656 217.394 60.3374 216.2 60.3374H209.536C209.299 60.3374 209.093 60.4053 208.991 60.5443L208.24 61.2978C208.102 61.4028 208.071 61.6066 208.071 61.8135V67.4372H208.068Z" fill="white"/>
<path d="M230.922 62.3602C230.922 62.0513 230.956 61.6746 230.648 61.3658L230.033 60.7142C229.725 60.4053 229.316 60.3374 229.076 60.3374H225.489V72.4432C225.489 73.6784 225.046 73.9873 223.849 73.9873H222.141C220.911 73.9873 220.535 73.6445 220.535 72.4432V48.6763C220.535 47.614 220.877 47.2032 221.969 47.2032H223.984C225.181 47.2032 225.489 47.614 225.489 48.6763V55.5692H230.067C231.294 55.5692 232.217 55.807 233.073 56.6655L234.713 58.2776C235.463 58.9971 235.839 59.9575 235.839 61.0878V72.4401C235.839 73.6043 235.497 73.9842 234.371 73.9842H232.491C231.261 73.9842 230.919 73.6414 230.919 72.4401V62.3571L230.922 62.3602Z" fill="white"/>
<path d="M243.632 68.6014C243.632 68.7744 243.666 68.8763 243.733 68.9442L244.244 69.3889C244.349 69.4909 244.45 69.5619 244.69 69.5619H249.336V66.8504H244.758C244.484 66.8504 244.383 66.9215 244.281 67.0234L243.733 67.5731C243.632 67.607 243.632 67.746 243.632 67.8819V68.6014ZM244.041 73.9842C242.469 73.9842 241.887 73.6754 241.035 72.8199L239.841 71.6186C239.158 70.8991 238.746 70.1795 238.746 68.9782V67.2643C238.746 66.1309 239.054 65.6182 239.804 64.8277L241.069 63.5584C241.924 62.7369 242.675 62.4281 244.075 62.4281H249.336V61.6746C249.336 61.3997 249.299 61.2299 249.198 61.1249L248.413 60.3343C248.312 60.1984 247.902 60.1645 247.832 60.1645H241.644C240.484 60.1645 240.038 59.8556 240.038 58.7593V57.0763C240.038 55.9799 240.38 55.5692 241.577 55.5692H248.785C250.121 55.5692 250.733 55.912 251.588 56.7674L253.093 58.2745C253.843 59.028 254.219 59.7136 254.219 60.7111V72.1652C254.219 73.5024 253.81 73.9811 252.407 73.9811H244.035L244.041 73.9842Z" fill="white"/>
<path d="M260.677 47.7498C261.052 47.407 261.36 47.2001 261.874 47.2001H263.101C263.683 47.2001 263.852 47.4379 264.23 47.7838L264.846 48.4354C265.255 48.8461 265.461 49.121 265.461 49.5317V50.801C265.461 51.2797 265.258 51.5545 264.846 51.9344L264.23 52.586C263.821 52.9967 263.547 53.2036 263.135 53.2036H261.904C261.394 53.2036 261.018 52.8948 260.643 52.518L260.095 51.9035C259.686 51.5236 259.48 51.3198 259.48 50.8041V49.5348C259.48 49.0191 259.585 48.8832 260.095 48.3675L260.677 47.7498ZM269.113 72.4771C269.113 73.6105 268.876 73.9872 267.679 73.9872H257.874C256.782 73.9872 256.373 73.6105 256.373 72.4771V70.6582C256.373 69.5618 256.782 69.1511 257.874 69.1511H260.332V60.4053H257.874C256.782 60.4053 256.373 60.0285 256.373 58.9322V57.0793C256.373 55.878 256.782 55.5723 257.874 55.5723H263.717C264.843 55.5723 265.218 56.0849 265.218 57.0793V69.1511H267.676C268.873 69.1511 269.11 69.4599 269.11 70.6582V72.4771H269.113Z" fill="white"/>
<path d="M282.066 62.3601C282.066 62.0513 282.1 61.6746 281.792 61.3657L281.177 60.7141C280.869 60.4053 280.457 60.3374 280.22 60.3374H276.599V72.4431C276.599 73.6784 276.153 73.9872 274.959 73.9872H273.215C272.021 73.9872 271.646 73.6445 271.646 72.4431V57.0453C271.646 56.0139 271.953 55.5723 273.079 55.5723H281.208C282.439 55.5723 283.362 55.8101 284.251 56.6686L285.857 58.2806C286.608 59.0002 286.983 59.9606 286.983 61.0909V72.4431C286.983 73.6074 286.641 73.9872 285.512 73.9872H283.632C282.405 73.9872 282.063 73.6445 282.063 72.4431V62.3601H282.066Z" fill="white"/>
<path d="M304.92 66.5107C304.92 66.8874 305.055 67.1623 305.228 67.3013L306.695 68.7743C306.864 68.9782 307.003 69.0152 307.483 69.0152H316.193C317.494 69.0152 317.833 69.2901 317.833 70.5223V72.4431C317.833 73.5734 317.457 73.9841 316.227 73.9841H306.729C305.397 73.9841 304.268 73.6074 303.449 72.7859L300.988 70.2814C300.237 69.4939 299.76 68.4995 299.76 67.434V55.4642C299.76 54.2999 300.203 53.3734 300.988 52.5829L303.412 50.0783C304.234 49.1858 305.464 48.948 306.726 48.877H316.224C317.454 48.877 317.83 49.3927 317.83 50.4211V52.308C317.83 53.5093 317.319 53.8521 316.19 53.8521H307.375C307.101 53.8521 306.827 53.988 306.726 54.093L305.12 55.7019C304.981 55.8039 304.914 56.1158 304.914 56.3536V66.5045L304.92 66.5107Z" fill="white"/>
<path d="M330.884 61.8135C330.884 61.6066 330.813 61.4028 330.712 61.2978L329.995 60.5443C329.893 60.4053 329.65 60.3374 329.38 60.3374H326.34C326.066 60.3374 325.897 60.4053 325.758 60.5443L325.041 61.2978C324.94 61.4028 324.872 61.6066 324.872 61.8135V67.746C324.872 67.9498 324.906 68.1567 325.008 68.2586L325.758 69.0121C325.86 69.1511 326.066 69.2191 326.306 69.2191H329.417C329.653 69.2191 329.897 69.1511 330.032 69.0121L330.749 68.2586C330.816 68.1567 330.887 67.9498 330.887 67.746V61.8135H330.884ZM333.207 56.7705L334.712 58.2775C335.462 58.9971 335.807 59.9235 335.807 61.0199V68.5644C335.807 69.6638 335.395 70.5192 334.678 71.2758L333.176 72.8168C332.321 73.7093 331.435 73.9842 330.066 73.9842H325.728C324.328 73.9842 323.439 73.7093 322.583 72.8168L321.079 71.2758C320.362 70.5223 319.953 69.6638 319.953 68.5644V61.0199C319.953 59.9575 320.294 58.9971 321.011 58.2775L322.549 56.7705C323.405 55.912 324.565 55.5723 325.897 55.5723H329.897C331.195 55.5723 332.355 55.9151 333.207 56.7705Z" fill="white"/>
<path d="M347.794 60.3374H344.071V72.4431C344.071 73.6445 343.625 73.9872 342.397 73.9872H340.724C339.462 73.9872 339.118 73.6445 339.118 72.4431V57.0453C339.118 55.9459 339.493 55.5723 340.622 55.5723H355.553C356.713 55.5723 357.741 55.8101 358.63 56.6686L360.236 58.2806C360.953 59.0002 361.332 60.0286 361.332 61.1619V72.4431C361.332 73.6074 360.987 73.9872 359.793 73.9872H357.981C356.818 73.9872 356.409 73.6445 356.409 72.4431V61.8784C356.409 61.6746 356.341 61.5016 356.206 61.3657L355.486 60.6122C355.317 60.4393 355.178 60.3374 354.904 60.3374H352.72V72.4431C352.72 73.6445 352.446 73.9872 351.114 73.9872H349.372C348.145 73.9872 347.8 73.6445 347.8 72.4431V60.3374H347.794Z" fill="white"/>
<path d="M375.293 61.8135C375.293 61.6066 375.223 61.4368 375.121 61.2978L374.438 60.5783C374.303 60.4084 374.029 60.3405 373.755 60.3405H369.894V69.2221H373.857C374.097 69.2221 374.303 69.1542 374.438 68.9813L375.158 68.2617C375.26 68.1598 375.293 67.9189 375.293 67.7491V61.8166V61.8135ZM364.94 57.0793C364.94 55.9799 365.316 55.5723 366.58 55.5723H374.472C375.77 55.5723 376.761 55.9151 377.65 56.7705L379.152 58.2775C379.902 58.9971 380.213 59.9235 380.247 61.0199V68.5644C380.247 69.6638 379.872 70.5532 379.152 71.2758L377.65 72.8168C376.761 73.6753 375.736 73.9842 374.472 73.9842H369.894V79.8487C369.894 80.9789 369.518 81.3557 368.322 81.3557H366.476C365.313 81.3557 364.937 81.0129 364.937 79.8487V57.0762L364.94 57.0793Z" fill="white"/>
<path d="M387.797 68.6014C387.797 68.7744 387.831 68.8763 387.899 68.9442L388.409 69.3889C388.514 69.4909 388.616 69.5619 388.856 69.5619H393.504V66.8504H388.926C388.652 66.8504 388.551 66.9215 388.449 67.0234L387.902 67.5731C387.8 67.607 387.8 67.746 387.8 67.8819V68.6014H387.797ZM388.206 73.9842C386.634 73.9842 386.056 73.6754 385.2 72.8199L384.004 71.6186C383.321 70.8991 382.911 70.1795 382.911 68.9782V67.2643C382.911 66.1309 383.219 65.6182 383.97 64.8277L385.231 63.5584C386.087 62.7369 386.84 62.4281 388.24 62.4281H393.501V61.6746C393.501 61.3997 393.464 61.2299 393.363 61.1249L392.575 60.3343C392.474 60.1984 392.065 60.1645 391.994 60.1645H385.81C384.65 60.1645 384.204 59.8556 384.204 58.7593V57.0763C384.204 55.9799 384.545 55.5692 385.745 55.5692H392.954C394.286 55.5692 394.901 55.912 395.757 56.7674L397.258 58.2745C398.009 59.028 398.387 59.7136 398.387 60.7111V72.1652C398.387 73.5024 397.978 73.9811 396.575 73.9811H388.203L388.206 73.9842Z" fill="white"/>
<path d="M412.497 62.3601C412.497 62.0513 412.531 61.6746 412.22 61.3657L411.608 60.7141C411.3 60.4053 410.888 60.3374 410.651 60.3374H407.03V72.4431C407.03 73.6784 406.583 73.9872 405.39 73.9872H403.645C402.451 73.9872 402.073 73.6445 402.073 72.4431V57.0453C402.073 56.0139 402.381 55.5723 403.507 55.5723H411.639C412.869 55.5723 413.792 55.8101 414.681 56.6686L416.287 58.2806C417.038 59.0002 417.417 59.9606 417.417 61.0909V72.4431C417.417 73.6074 417.075 73.9872 415.946 73.9872H414.066C412.838 73.9872 412.497 73.6445 412.497 72.4431V62.3601Z" fill="white"/>
<path d="M425.613 67.1963C425.613 67.5051 425.579 67.8819 425.887 68.1907L426.536 68.8423C426.81 69.1172 427.219 69.2191 427.456 69.2191H431.08V57.2152C431.08 56.0849 431.354 55.5692 432.72 55.5692H434.397C435.695 55.5692 436.003 55.9491 436.003 57.2523V76.5937C436.003 77.6221 435.695 78.5486 435.114 79.1322L433.372 80.8802C432.52 81.7387 431.563 82.0104 430.265 82.0104H424.182C423.056 82.0104 422.647 81.5657 422.647 80.5374V78.6844C422.647 77.5171 423.09 77.2453 424.253 77.2453H429.65C429.856 77.2453 430.059 77.1434 430.163 77.0724L430.951 76.2509C431.053 76.1459 431.086 75.9421 431.086 75.7352V73.9873H426.508C425.244 73.9873 424.321 73.7495 423.468 72.891L421.829 71.2789C421.078 70.5254 420.736 69.5989 420.736 68.4656V57.1133C420.736 55.9491 421.044 55.5692 422.204 55.5692H424.05C425.278 55.5692 425.619 55.912 425.619 57.1133V67.1963H425.613Z" fill="white"/>
</g>
<defs>
<clipPath id="clip0_2048_377">
<rect width="436" height="96" fill="white"/>
</clipPath>
</defs>
</svg>
